<?xml version="1.0" encoding="UTF-8" standalone="no"?>
<!-- Generator: Adobe Illustrator 15.1.0, SVG Export Plug-In . SVG Version: 6.00 Build 0)  -->

<svg
   xmlns:dc="http://purl.org/dc/elements/1.1/"
   xmlns:cc="http://creativecommons.org/ns#"
   xmlns:rdf="http://www.w3.org/1999/02/22-rdf-syntax-ns#"
   xmlns:svg="http://www.w3.org/2000/svg"
   xmlns="http://www.w3.org/2000/svg"
   xmlns:sodipodi="http://sodipodi.sourceforge.net/DTD/sodipodi-0.dtd"
   xmlns:inkscape="http://www.inkscape.org/namespaces/inkscape"
   version="1.1"
   id="Layer_3"
   x="0px"
   y="0px"
   width="262px"
   height="258px"
   viewBox="0 0 262 258"
   enable-background="new 0 0 262 258"
   xml:space="preserve"
   inkscape:version="0.91 r13725"
   sodipodi:docname="logo-scifi white alt.svg"><sodipodi:namedview
     pagecolor="#ffffff"
     bordercolor="#666666"
     borderopacity="1"
     objecttolerance="10"
     gridtolerance="10"
     guidetolerance="10"
     inkscape:pageopacity="0"
     inkscape:pageshadow="2"
     inkscape:window-width="1450"
     inkscape:window-height="917"
     id="namedview21"
     showgrid="false"
     inkscape:zoom="3.0232558"
     inkscape:cx="83.112226"
     inkscape:cy="151.75256"
     inkscape:window-x="63"
     inkscape:window-y="34"
     inkscape:window-maximized="0"
     inkscape:current-layer="g3" /><metadata
     id="metadata25"><rdf:RDF><cc:Work
         rdf:about=""><dc:format>image/svg+xml</dc:format><dc:type
           rdf:resource="http://purl.org/dc/dcmitype/StillImage" /><dc:title></dc:title></cc:Work></rdf:RDF></metadata><defs
     id="defs23" /><g
     id="g3"><ellipse
       fill="#000000"
       cx="131.167"
       cy="139.167"
       rx="76"
       ry="85.667"
       id="ellipse7"
       style="fill:none;stroke-width:3.54330709;stroke-miterlimit:4;stroke-dasharray:none;stroke:#000000;stroke-opacity:1" /><path
       style="fill:#000000"
       d="m 132.36133,88.914062 c -15.20922,0.02015 -30.00511,3.529933 -42.197268,10.009766 L 125.5,140.75 c 0,0 1.75,3.25 0,3.5 -1.75,0.25 -6.5,0 -6.5,0 l 23.75,33.25 -33.25,-35.25 c 0,0 -1.75,-2.87695 1,-2.87695 l 6.75,0 -32.449219,-37.30469 c -2.55377,1.64121 -4.936377,3.41283 -7.128906,5.30078 L 110.75,146.52148 c 0,0 1.75,3.25 0,3.5 -1.75,0.25 -6.5,0 -6.5,0 l 23.75,33.25 -33.25,-35.25 c 0,0 -1.75,-2.87695 1,-2.87695 l 6.75,0 -29.1875,-33.55273 c -7.650822,8.2404 -11.738481,17.90029 -11.755859,27.78125 -7.21e-4,27.86856 31.699779,50.46081 70.804689,50.46093 39.10567,6.5e-4 70.80736,-22.59182 70.80664,-50.46093 -7.8e-4,-27.86835 -31.70203,-50.459633 -70.80664,-50.458988 z M 73.3125,111.5918 c 1.494189,-1.48111 2.804565,-2.86989 4.359375,-4.22266 l -0.01274,-0.006 -4.364904,4.23846 z m 11.488281,-9.52344 c 1.714508,-1.11007 3.504421,-2.0148 5.363281,-3.144532 l -0.0083,0.02136 -5.336538,3.142788 z"
       id="ellipse9"
       inkscape:connector-curvature="0"
       sodipodi:nodetypes="cccscccsccccscccsccccsccccccccccc" /><circle
       cx="56.5"
       cy="69.5"
       r="11"
       id="circle11"
       style="fill:#000000" /><path
       d="m 207.81315,120.17146 c 0,1.104 -0.896,2 -2,2 l 0,0 c -1.104,0 -2,-0.896 -2,-2 l 0,-59.332998 c 0,-1.104 0.896,-2 2,-2 l 0,0 c 1.104,0 2,0.896 2,2 l 0,59.332998 z"
       id="path13"
       inkscape:connector-curvature="0"
       style="fill:#000000" /><path
       fill="#000000"
       d="M132.558,228.833c47.667,0,65.333-38.666,68.667-45.666s4-0.667,4,4.666s-2.058,11.667-2.058,11.667   s-20.511,41-70.648,41h-1.685c-50.138,0-70.276-41-70.276-41s-2.058-6.334-2.058-11.667s0.667-11.666,4-4.666   s21,45.666,68.667,45.666H132.558z"
       id="path15" /><path
       inkscape:connector-curvature="0"
       d="m 245.09322,132.65254 c 0,63.513 -51.487,115 -115,115 -63.513002,0 -115.000002,-51.487 -115.000002,-115 0,-63.512997 51.487,-115 115.000002,-115 63.513,0 115,51.487003 115,115 z m -114.25,-110 c -60.613002,0 -109.750002,49.137003 -109.750002,109.75 0,60.613 49.137,109.75 109.750002,109.75 60.613,0 109.75,-49.137 109.75,-109.75 0,-60.612997 -49.137,-109.75 -109.75,-109.75 z"
       id="path3" /></g></svg>