<?xml version="1.0" encoding="utf-8"?>
<!-- Generator: Adobe Illustrator 15.1.0, SVG Export Plug-In . SVG Version: 6.00 Build 0)  -->
<!DOCTYPE svg PUBLIC "-//W3C//DTD SVG 1.1//EN" "http://www.w3.org/Graphics/SVG/1.1/DTD/svg11.dtd">
<svg version="1.1" id="Layer_1" xmlns="http://www.w3.org/2000/svg" xmlns:xlink="http://www.w3.org/1999/xlink" x="0px" y="0px"
	 width="262px" height="258px" viewBox="0 0 262 258" enable-background="new 0 0 262 258" xml:space="preserve">
<path d="M245.5,129c0,63.513-51.487,115-115,115s-115-51.487-115-115s51.487-115,115-115S245.5,65.487,245.5,129z M131.25,19
	C70.637,19,21.5,68.137,21.5,128.75S70.637,238.5,131.25,238.5S241,189.363,241,128.75S191.863,19,131.25,19z"/>
<path d="M128.688,221c-9.765,0-11.774-8.922-15.795-11.795s-8.616-4.329-12.35-5.478c-3.732-1.148-6.892-7.442-7.466-13.761
	c-0.575-6.317-4.021-19.765-9.19-24.646c-5.169-4.883-7.467-13.113-6.605-17.421c0.862-4.308-3.158-12.153-5.742-16.173
	c-2.585-4.02-17.232-31.196-2.873-57.042S97.672,39,120.071,39h2.683c22.4,0,56,9.853,70.359,35.698
	c14.359,25.847-0.288,52.644-2.873,56.663c-2.584,4.021-6.604,12.09-5.742,16.397c0.861,4.308-1.437,12.692-6.605,17.575
	c-5.17,4.882-8.616,18.49-9.19,24.808c-0.574,6.318-3.733,12.86-7.466,14.008c-3.733,1.149-8.329,2.171-12.35,5.044
	c-4.021,2.871-6.03,11.807-15.795,11.807H128.688z M146.78,138.226c5.456,4.739,13.641,3.303,19.098-0.144
	s5.456-11.773,5.743-15.508c0.287-3.733-2.154-10.481-5.17-11.343c-3.015-0.861-6.604,0.143-10.625,1.005
	c-4.021,0.861-12.498,4.403-12.923,7.467C142.186,124.872,141.324,133.487,146.78,138.226z M115.975,119.703
	c-0.424-3.063-8.901-6.605-12.923-7.467c-4.021-0.862-7.609-1.866-10.625-1.005s-5.456,7.609-5.169,11.343
	c0.287,3.734,0.286,12.062,5.743,15.508c5.456,3.446,13.642,4.883,19.098,0.144C117.555,133.487,116.692,124.872,115.975,119.703z
	 M130.984,161.21c0.771,1.456,2.154,2.457,4.093,1.811c1.938-0.646-0.323-4.455-0.323-4.455c-0.538-1.077-3.23-8.266-3.23-8.696
	s-0.506-1.25-0.861-1.885c0,0-0.853-1.402-1.785-1.402c-0.932,0-1.631,1.402-1.631,1.402c-0.475,0.738-0.861,1.454-0.861,1.885
	s-2.693,7.7-3.231,8.776c0,0-2.262,3.77-0.323,4.416c1.938,0.646,3.77-0.216,4.093-1.831c0,0,0.539-0.871,1.954-0.871
	S130.814,160.888,130.984,161.21z M130.876,190c2.488,0,2.704-2.779,5.193-2.779c2.488,0,1.947,3.316,4.465,3.316
	c2.517,0,2.676-1.208,3.217-2.398s3.896-1.85,4.544,0.099c0.649,1.947,1.84,2.052,1.84,2.052c2.488-0.108,6.816-4.114,7.682-6.928
	c0.865-2.813,5.519-10.388,5.519-10.388c0.757-1.623,3.679-7.034,1.406-8.007c-2.272-0.975-7.142,1.19-10.495,8.114
	c-3.354,6.925-4.111,11.901-6.6,11.901c-2.489,0-2.489-3.354-5.302-3.354c-2.813,0-2.705,3.54-5.951,3.54S134.338,182,130.768,182
	h0.199c-3.57,0-2.38,3.168-5.626,3.168s-3.138-3.393-5.951-3.393s-2.813,3.28-5.302,3.28s-3.246-5.014-6.6-11.938
	c-3.354-6.925-8.223-9.106-10.495-8.133s0.649,6.373,1.406,7.996c0,0,4.652,7.569,5.519,10.383c0.865,2.813,5.193,6.814,7.682,6.923
	c0,0,1.19-0.11,1.84-2.058c0.648-1.947,4.003-1.299,4.544-0.107c0.541,1.189,0.7,2.379,3.217,2.379c2.518,0,1.977-3.279,4.465-3.279
	S128.37,190,130.858,190H130.876z"/>
</svg>
