<?xml version="1.0" encoding="utf-8"?>
<!-- Generator: Adobe Illustrator 15.1.0, SVG Export Plug-In . SVG Version: 6.00 Build 0)  -->
<!DOCTYPE svg PUBLIC "-//W3C//DTD SVG 1.1//EN" "http://www.w3.org/Graphics/SVG/1.1/DTD/svg11.dtd">
<svg version="1.1" id="Layer_1" xmlns="http://www.w3.org/2000/svg" xmlns:xlink="http://www.w3.org/1999/xlink" x="0px" y="0px"
	 width="262px" height="258px" viewBox="0 0 262 258" enable-background="new 0 0 262 258" xml:space="preserve">
<g>
	<path d="M246.5,128c0,63.513-51.487,115-115,115s-115-51.487-115-115s51.487-115,115-115S246.5,64.487,246.5,128z M132.25,18
		C71.637,18,22.5,67.137,22.5,127.75S71.637,237.5,132.25,237.5S242,188.363,242,127.75S192.863,18,132.25,18z"/>
	<path d="M131.5,121.5c0,0,86.5,1,86.5-11s-29.5-9.5-29.5-9.5s7.5-27.41-6.5-41.41S130.217,47,130.217,47h-0.097
		c0,0-37.62-1.41-51.62,12.59S72,101.045,72,101.045s-29.5-2.522-29.5,9.478s86.5,10.989,86.5,10.989L131.5,121.5z"/>
	<path d="M78.25,128c0,0,22.75,2,51.25,2s50.75-2,50.75-2s11,6.75,11,32.5s-20.75,59.25-59.75,59.25S70.75,186.25,70.75,161
		S78,128.25,78.25,128z"/>
</g>
</svg>
