<?xml version="1.0" encoding="UTF-8" standalone="no"?>
<!-- Generator: Adobe Illustrator 15.1.0, SVG Export Plug-In . SVG Version: 6.00 Build 0)  -->

<svg
   xmlns:dc="http://purl.org/dc/elements/1.1/"
   xmlns:cc="http://creativecommons.org/ns#"
   xmlns:rdf="http://www.w3.org/1999/02/22-rdf-syntax-ns#"
   xmlns:svg="http://www.w3.org/2000/svg"
   xmlns="http://www.w3.org/2000/svg"
   xmlns:sodipodi="http://sodipodi.sourceforge.net/DTD/sodipodi-0.dtd"
   xmlns:inkscape="http://www.inkscape.org/namespaces/inkscape"
   version="1.1"
   id="Layer_3"
   x="0px"
   y="0px"
   width="262px"
   height="258px"
   viewBox="0 0 262 258"
   enable-background="new 0 0 262 258"
   xml:space="preserve"
   inkscape:version="0.91 r13725"
   sodipodi:docname="logo-scifi white test.svg"><sodipodi:namedview
     pagecolor="#ffffff"
     bordercolor="#666666"
     borderopacity="1"
     objecttolerance="10"
     gridtolerance="10"
     guidetolerance="10"
     inkscape:pageopacity="0"
     inkscape:pageshadow="2"
     inkscape:window-width="1450"
     inkscape:window-height="917"
     id="namedview21"
     showgrid="false"
     inkscape:zoom="3.3913043"
     inkscape:cx="119.59044"
     inkscape:cy="123.73349"
     inkscape:window-x="63"
     inkscape:window-y="34"
     inkscape:window-maximized="0"
     inkscape:current-layer="g3" /><metadata
     id="metadata25"><rdf:RDF><cc:Work
         rdf:about=""><dc:format>image/svg+xml</dc:format><dc:type
           rdf:resource="http://purl.org/dc/dcmitype/StillImage" /><dc:title></dc:title></cc:Work></rdf:RDF></metadata><defs
     id="defs23" /><g
     id="g3"><path
       style="fill:#000000"
       d="M 131.16797 53.5 A 76 85.667 0 0 0 55.167969 139.16797 A 76 85.667 0 0 0 131.16797 224.83398 A 76 85.667 0 0 0 207.16797 139.16797 A 76 85.667 0 0 0 131.16797 53.5 z M 132.36133 88.914062 A 70.805 50.459999 0 0 1 203.16797 139.37305 A 70.805 50.459999 0 0 1 132.36133 189.83398 A 70.805 50.459999 0 0 1 61.556641 139.37305 A 70.805 50.459999 0 0 1 132.36133 88.914062 z "
       id="ellipse7" /><circle
       cx="56.5"
       cy="69.5"
       r="11"
       id="circle11"
       style="fill:#000000" /><path
       fill="#000000"
       d="M205.167,120.833c0,1.104-0.896,2-2,2l0,0c-1.104,0-2-0.896-2-2V61.5c0-1.104,0.896-2,2-2l0,0   c1.104,0,2,0.896,2,2V120.833z"
       id="path13" /><path
       fill="#000000"
       d="M132.558,228.833c47.667,0,65.333-38.666,68.667-45.666s4-0.667,4,4.666s-2.058,11.667-2.058,11.667   s-20.511,41-70.648,41h-1.685c-50.138,0-70.276-41-70.276-41s-2.058-6.334-2.058-11.667s0.667-11.666,4-4.666   s21,45.666,68.667,45.666H132.558z"
       id="path15" /><path
       fill="#000000"
       d="M88.75,97.25l36.75,43.5c0,0,1.75,3.25,0,3.5s-6.5,0-6.5,0l23.75,33.25l-33.25-35.25   c0,0-1.75-2.877,1-2.877s6.75,0,6.75,0L83,100L88.75,97.25z"
       id="path17" /><path
       fill="#000000"
       d="M74,103.021l36.75,43.5c0,0,1.75,3.25,0,3.5s-6.5,0-6.5,0l23.75,33.25l-33.25-35.25c0,0-1.75-2.877,1-2.877   s6.75,0,6.75,0l-34.25-39.373L74,103.021z"
       id="path19" /><path
       inkscape:connector-curvature="0"
       d="m 245.09322,132.65254 c 0,63.513 -51.487,115 -115,115 -63.513002,0 -115.000002,-51.487 -115.000002,-115 0,-63.512997 51.487,-115 115.000002,-115 63.513,0 115,51.487003 115,115 z m -114.25,-110 c -60.613002,0 -109.750002,49.137003 -109.750002,109.75 0,60.613 49.137,109.75 109.750002,109.75 60.613,0 109.75,-49.137 109.75,-109.75 0,-60.612997 -49.137,-109.75 -109.75,-109.75 z"
       id="path3" /></g></svg>