<?xml version="1.0" encoding="utf-8"?>
<!-- Generator: Adobe Illustrator 15.1.0, SVG Export Plug-In . SVG Version: 6.00 Build 0)  -->
<!DOCTYPE svg PUBLIC "-//W3C//DTD SVG 1.1//EN" "http://www.w3.org/Graphics/SVG/1.1/DTD/svg11.dtd">
<svg version="1.1" id="Layer_1" xmlns="http://www.w3.org/2000/svg" xmlns:xlink="http://www.w3.org/1999/xlink" x="0px" y="0px"
	 width="262px" height="258px" viewBox="0 0 262 258" enable-background="new 0 0 262 258" xml:space="preserve">
<g>
	<path d="M246.5,127c0,63.513-51.487,115-115,115s-115-51.487-115-115s51.487-115,115-115S246.5,63.487,246.5,127z M132.25,17
		C71.637,17,22.5,66.137,22.5,126.75S71.637,236.5,132.25,236.5S242,187.363,242,126.75S192.863,17,132.25,17z"/>
	<path d="M24.667,149c0,0,3.667-23.666,19-42.333S75.667,83,80,82c0,0-3.666-4.333-4.333-9.333c0,0,10,6,14.667,7.333
		c0,0-4-13.667-1-21.667c0,0,7,13.667,12.667,16.667c0,0-5-20.667,5.667-35c0,0,2.333-1,2,1c0,0-10,21.334,8.667,42.667
		c0,0,5.333,1.667,9,2.667s10,5,9,7.667c0,0,1,3.667,4,5.333s13.666,9,15.666,11s1.333,11.667-11,13c0,0,3.667-5,0.667-10
		s-13.333-2-15-1.333c0,0-7.667-9-12-3.667s4.667,12,7.667,15c0,0,13,14.333,16.333,13.333s5.333-4.001,6-6.667
		c0,0,1.333,10.333-4.667,13s-17,0-21,0s-7-0.666-7-0.666s8.667-5.334,7-7.667c0,0-7.667-3.001-23,9.333c0,0,4-12.333,12-17.333
		c0,0-6-1.333-8.333,0s-7.667,1-11.333-0.667S83,121.333,79,129s-10,27-2.333,39S96,183.667,100.333,184.667c0,0,5-7.334,19-9.667
		c14-2.333,46.333-2,66.667-13s41-30.666,29.334-58.333C203.667,76,182,70.667,173,78.333c0,0,16-23.667,47-2.667
		c0,0-29.666-44-73.333-11c0,0,11.999-29.667,45.333-29.667c0,0,50,28.167,50,91.75c0,63.584-51.666,110.584-108.333,110.584
		C75,237.334,34.667,196.333,24.667,149z M122.956,99.077c2.272,1.104,6.186,0.126,6.186,0.126c1.767-0.631,0.789-2.146,0.789-2.146
		c-3.346-3.219-10.257-4.734-10.257-4.734c-1.483-0.474-0.947,0.947-0.947,0.947C119.295,96.836,122.956,99.077,122.956,99.077z"/>
</g>
</svg>
